PathFileType	4	(X/Y/Z)	C:\Users\86182\Documents\cortex\Trimmed_M3_L6.trc
DataRate	CameraRate	NumFrames	NumMarkers	Units	OrigDataRate	OrigDataStartFrame	OrigNumFrames
100.00	100.00	       169	2	mm	100.00	361	       901
Frame#	Time	gripper			box			
		X1	Y1	Z1	X2	Y2	Z2	

361	3.600	273.45914	149.91161	293.05212	273.96899	149.79152	146.84352	
362	3.610	273.48132	149.91866	293.07202	273.96899	149.79152	146.84352	
363	3.620	273.48898	149.92300	293.08389	273.95474	149.78076	146.85023	
364	3.630	273.49194	149.92747	293.12726	273.93753	149.76778	146.85837	
365	3.640	273.48953	149.93553	293.10468	273.91440	149.75031	146.86931	
366	3.650	273.49353	149.93332	293.15424	273.93463	149.76558	146.85974	
367	3.660	273.49100	149.93542	293.12326	273.94043	149.76994	146.85703	
368	3.670	273.49316	149.92657	293.14182	273.93176	149.76341	146.86110	
369	3.680	273.49097	149.91701	293.10327	273.92310	149.75688	146.86519	
370	3.690	273.48889	149.92442	293.08414	273.90683	149.74068	146.87283	
371	3.700	273.48969	149.91936	293.08887	273.90271	149.74150	146.87482	
372	3.710	273.48871	149.92111	293.07803	273.91727	149.75247	146.86795	
373	3.720	273.48871	149.92111	293.07803	273.91440	149.75031	146.86931	
374	3.730	273.48932	149.91992	293.08527	273.91852	149.74950	146.86732	
375	3.740	273.48987	149.91907	293.09067	273.94617	149.77428	146.85429	
376	3.750	273.48901	149.92662	293.08820	273.96686	149.78206	146.84639	
377	3.760	273.49045	149.92036	293.10010	273.96899	149.79152	146.84352	
378	3.770	273.48871	149.92111	293.07803	273.98672	149.77721	146.83498	
379	3.780	273.35522	149.86086	292.96866	274.00436	149.74635	146.82632	
380	3.790	273.39767	149.85167	292.92569	273.96988	149.70500	146.79227	
381	3.800	273.39771	149.82878	292.88318	273.86203	149.64194	146.68996	
382	3.810	273.49319	149.81406	292.82040	273.80063	149.50822	146.65305	
383	3.820	273.49811	149.81342	292.81812	273.78003	149.51813	146.65654	
384	3.830	273.48114	149.81697	292.82404	273.79251	149.52971	146.63522	
385	3.840	273.50494	149.81198	292.81573	273.78873	149.53036	146.63713	
386	3.850	273.47794	149.81670	292.82657	273.77365	149.52701	146.65128	
387	3.860	273.41971	149.82544	292.85205	273.77374	149.52113	146.65762	
388	3.870	273.44238	149.82021	292.84485	273.79074	149.52910	146.65558	
389	3.880	273.41092	149.82996	292.86835	273.79428	149.53571	146.66289	
390	3.890	273.42123	149.82010	292.86331	273.81177	149.54936	146.65736	
391	3.900	273.41870	149.82838	292.87415	273.83340	149.59514	146.68753	
392	3.910	273.48367	149.81795	292.83813	273.89572	149.55571	146.65486	
393	3.920	273.50494	149.81198	292.81573	273.82706	149.51974	146.64984	
394	3.930	273.50494	149.81198	292.81573	273.78830	149.51414	146.65515	
395	3.940	273.50494	149.81198	292.81573	273.77365	149.52701	146.65128	
396	3.950	273.50494	149.81198	292.81573	273.78247	149.52158	146.65106	
397	3.960	273.50494	149.81198	292.81573	273.77032	149.52626	146.65439	
398	3.970	273.47101	149.81909	292.82758	273.76907	149.52740	146.65863	
399	3.980	273.46686	149.81744	292.83279	273.77585	149.52013	146.65726	
400	3.990	273.46948	149.81435	292.83569	273.80511	149.54227	146.65419	
401	4.000	273.43546	149.81822	292.85242	273.78445	149.53212	146.65665	
402	4.010	273.47751	149.81348	292.83167	273.80774	149.51695	146.65250	
403	4.020	273.44128	149.82175	292.84756	273.78400	149.53641	146.65695	
404	4.030	273.43286	149.82176	292.84885	273.82089	149.55862	146.65279	
405	4.040	273.44217	149.82008	292.84518	273.78238	149.53313	146.65700	
406	4.050	273.44763	149.82211	292.83853	273.76907	149.52740	146.65863	
407	4.060	273.45660	149.82054	292.83496	273.76703	149.52553	146.65749	
408	4.070	273.48163	149.81404	292.82809	273.76535	149.52516	146.65906	
409	4.080	273.50153	149.81270	292.81693	273.79037	149.51315	146.65479	
410	4.090	273.46472	149.81664	292.83542	273.76535	149.52516	146.65906	
411	4.100	273.45016	149.81808	292.84290	273.77542	149.52438	146.65755	
412	4.110	273.42599	149.82149	292.85382	273.79242	149.51216	146.65445	
413	4.120	273.45053	149.81526	292.84686	273.85941	149.54808	146.64665	
414	4.130	273.42914	149.82596	292.86227	273.86313	149.54042	146.64697	
415	4.140	273.46741	149.81329	292.83862	273.80267	149.50723	146.65269	
416	4.150	273.47458	149.81740	292.82773	273.79651	149.51019	146.65375	
417	4.160	273.50269	149.81215	292.81699	273.78497	149.52788	146.65636	
418	4.170	273.48285	149.81346	292.82816	273.80527	149.52213	146.65311	
419	4.180	273.50494	149.81198	292.81573	273.77783	149.52498	146.65059	
420	4.190	273.50494	149.81198	292.81573	273.78156	149.52722	146.65016	
421	4.200	273.49170	149.81287	292.82318	273.77374	149.52113	146.65762	
422	4.210	273.48285	149.81346	292.82816	273.78830	149.51414	146.65515	
423	4.220	273.45599	149.81525	292.84326	273.79453	149.51117	146.65408	
424	4.230	273.46948	149.81435	292.83569	273.79651	149.51019	146.65375	
425	4.240	273.41977	149.82040	292.85956	273.79242	149.51216	146.65445	
426	4.250	273.43988	149.81987	292.84702	273.77374	149.52113	146.65762	
427	4.260	273.44260	149.81493	292.85263	273.76962	149.53331	146.66013	
428	4.270	273.45685	149.81764	292.83911	273.78003	149.51813	146.65654	
429	4.280	273.47839	149.81377	292.83066	273.79242	149.51216	146.65445	
430	4.290	273.49170	149.81287	292.82318	273.78207	149.51714	146.65620	
431	4.300	273.50494	149.81198	292.81573	273.79858	149.50920	146.65340	
432	4.310	273.48730	149.81316	292.82565	273.76703	149.52553	146.65749	
433	4.320	273.49130	149.81485	292.82050	273.78375	149.52037	146.65613	
434	4.330	273.48792	149.81555	292.82166	273.84384	149.51909	146.64346	
435	4.340	273.50269	149.81215	292.81699	273.78912	149.52588	146.65564	
436	4.350	273.49393	149.81273	292.82193	273.77170	149.52214	146.65796	
437	4.360	273.48285	149.81346	292.82816	273.78830	149.51414	146.65515	
438	4.370	273.46347	149.81816	292.83395	273.78830	149.51414	146.65515	
439	4.380	273.44992	149.82100	292.83868	273.78003	149.51813	146.65654	
440	4.390	273.47839	149.81377	292.83066	273.78830	149.51414	146.65515	
441	4.400	273.44565	149.81839	292.84540	273.76749	149.52415	146.65868	
442	4.410	273.44226	149.81911	292.84659	273.78207	149.51714	146.65620	
443	4.420	273.47015	149.81770	292.83020	273.77585	149.52013	146.65726	
444	4.430	273.47485	149.81546	292.83047	273.78207	149.51714	146.65620	
445	4.440	273.44208	149.82201	292.84235	273.78003	149.51813	146.65654	
446	4.450	273.48730	149.81316	292.82565	273.80978	149.51596	146.65215	
447	4.460	273.49612	149.81258	292.82068	273.79727	149.54210	146.65530	
448	4.470	273.50494	149.81198	292.81573	273.81613	149.54736	146.65915	
449	4.480	273.50269	149.81215	292.81699	273.77264	149.52376	146.65918	
450	4.490	273.50269	149.81215	292.81699	273.78955	149.51872	146.65390	
451	4.500	273.47391	149.81406	292.83319	273.78418	149.51613	146.65584	
452	4.510	273.49393	149.81273	292.82193	273.79037	149.51315	146.65479	
453	4.520	273.47430	149.81581	292.83029	273.78625	149.51514	146.65549	
454	4.530	273.48572	149.81570	292.82291	273.78400	149.53641	146.65695	
455	4.540	273.48163	149.81404	292.82809	273.78625	149.51514	146.65549	
456	4.550	273.46274	149.81479	292.83948	273.79037	149.51315	146.65479	
457	4.560	273.48059	149.81361	292.82941	273.79257	149.52229	146.65622	
458	4.570	273.42871	149.82291	292.84988	273.78207	149.51714	146.65620	
459	4.580	273.45880	149.81587	292.84048	273.81552	149.53728	146.65244	
460	4.590	273.45255	149.81596	292.84448	273.82339	149.53751	146.65129	
461	4.600	273.48163	149.81404	292.82809	273.76382	149.52916	146.65939	
462	4.610	273.50153	149.81270	292.81693	273.78625	149.51514	146.65549	
463	4.620	273.48453	149.81627	292.82285	273.77286	149.52388	146.65524	
464	4.630	273.49829	149.81244	292.81946	273.77585	149.52013	146.65726	
465	4.640	273.48044	149.81461	292.82803	273.82751	149.53554	146.65059	
466	4.650	273.47839	149.81377	292.83066	273.77585	149.52013	146.65726	
467	4.660	273.50494	149.81198	292.81573	273.82202	149.51009	146.65007	
468	4.670	273.50153	149.81270	292.81693	273.79037	149.51315	146.65479	
469	4.680	273.49612	149.81258	292.82068	273.81689	149.52464	146.65155	
470	4.690	273.47171	149.81419	292.83441	273.79614	149.51440	146.65402	
471	4.700	273.47614	149.81390	292.83191	273.81274	149.52663	146.65225	
472	4.710	273.44330	149.82050	292.84384	273.80157	149.51990	146.65353	
473	4.720	273.47028	149.81673	292.83160	273.78418	149.51613	146.65584	
474	4.730	273.48285	149.81346	292.82816	273.78418	149.51613	146.65584	
475	4.740	273.46817	149.81590	292.83423	273.78207	149.51714	146.65620	
476	4.750	273.50494	149.81198	292.81573	273.80942	149.52014	146.65240	
477	4.760	273.50153	149.81270	292.81693	273.77121	149.52640	146.65826	
478	4.770	273.49393	149.81273	292.82193	273.79935	149.54109	146.65495	
479	4.780	273.47702	149.81532	292.82922	273.81689	149.52464	146.65155	
480	4.790	273.47702	149.81532	292.82922	273.77701	149.52475	146.65602	
481	4.800	273.50494	149.81198	292.81573	273.77869	149.53090	146.65741	
482	4.810	273.49612	149.81258	292.82068	273.79611	149.53461	146.65509	
483	4.820	273.50494	149.81198	292.81573	273.79611	149.53461	146.65509	
484	4.830	273.46896	149.81827	292.83017	273.81760	149.53627	146.65208	
485	4.840	273.42310	149.82568	292.84946	273.80399	149.51471	146.65291	
486	4.850	273.48093	149.81537	292.82657	273.76535	149.52516	146.65906	
487	4.860	273.45374	149.81540	292.84454	273.78003	149.51813	146.65654	
488	4.870	273.46051	149.81494	292.84073	273.79037	149.51315	146.65479	
489	4.880	273.48608	149.81374	292.82559	273.78418	149.51613	146.65584	
490	4.890	273.46051	149.81494	292.84073	273.78207	149.51714	146.65620	
491	4.900	273.49829	149.81244	292.81946	273.81284	149.50237	146.65097	
492	4.910	273.45010	149.81906	292.84146	273.80157	149.51990	146.65353	
493	4.920	273.49393	149.81273	292.82193	273.83447	149.54417	146.65005	
494	4.930	273.50494	149.81198	292.81573	273.78497	149.52788	146.65636	
495	4.940	273.50494	149.81198	292.81573	273.79453	149.51117	146.65408	
496	4.950	273.48911	149.81499	292.82172	273.80191	149.53583	146.65431	
497	4.960	273.50494	149.81198	292.81573	273.77454	149.53003	146.65663	
498	4.970	273.48163	149.81404	292.82809	273.77585	149.52013	146.65726	
499	4.980	273.43753	149.82516	292.84067	273.81393	149.53407	146.65248	
500	4.990	273.43854	149.82127	292.84583	273.77585	149.52013	146.65726	
501	5.000	273.41971	149.82544	292.85205	273.77121	149.52640	146.65826	
502	5.010	273.45001	149.82002	292.84006	273.80606	149.53383	146.65359	
503	5.020	273.45224	149.81989	292.83884	273.77374	149.52113	146.65762	
504	5.030	273.46698	149.81647	292.83417	273.78400	149.53641	146.65695	
505	5.040	273.44885	149.82059	292.84000	273.77585	149.52013	146.65726	
506	5.050	273.47101	149.81909	292.82758	273.78290	149.52888	146.65669	
507	5.060	273.48929	149.81401	292.82306	273.81461	149.54573	146.65300	
508	5.070	273.49829	149.81244	292.81946	273.77792	149.51913	146.65691	
509	5.080	273.50494	149.81198	292.81573	273.77078	149.52489	146.65558	
510	5.090	273.50494	149.81198	292.81573	273.80353	149.53908	146.65425	
511	5.100	273.46582	149.81703	292.83411	273.79193	149.53662	146.65579	
512	5.110	273.47821	149.81476	292.82928	273.81393	149.53407	146.65248	
513	5.120	273.48730	149.81316	292.82565	273.83447	149.54417	146.65005	
514	5.130	273.48502	149.81332	292.82690	273.81622	149.54895	146.65294	
515	5.140	273.46582	149.81703	292.83411	273.78024	149.53413	146.65738	
516	5.150	273.47247	149.81659	292.83035	273.78003	149.51813	146.65654	
517	5.160	273.48013	149.81656	292.82532	273.78003	149.51813	146.65654	
518	5.170	273.46997	149.81868	292.82886	273.79538	149.52289	146.65459	
519	5.180	273.47116	149.81812	292.82892	273.81186	149.53508	146.65283	
520	5.190	273.45795	149.81804	292.83777	273.79453	149.51117	146.65408	
521	5.200	273.48248	149.81543	292.82544	273.77542	149.52438	146.65755	
522	5.210	273.42642	149.82498	292.84830	273.80292	149.54749	146.65732	
523	5.220	273.47586	149.81587	292.82916	273.80563	149.53807	146.65390	
524	5.230	273.45554	149.82013	292.83624	273.81824	149.56807	146.65619	
525	5.240	273.45428	149.82166	292.83481	273.81186	149.53508	146.65283	
526	5.250	273.44421	149.82376	292.83832	273.78003	149.51813	146.65654	
527	5.260	273.43649	149.82382	292.84335	273.80072	149.52837	146.65410	
528	5.270	273.47794	149.81670	292.82657	273.76535	149.52516	146.65906	
529	5.280	273.50494	149.81198	292.81573	273.80191	149.53583	146.65431	
